#!OML:ASF H:\Terrain\Patient Classification 1\PLAYGROUND\JustinFriday\JustinFriday.ASF
:FULLY-SPECIFIED
:DEGREES
84
root 9.46025 17.8399 -18.2728 3.92003 -6.75715 -5.67412
lowerback 13.7672 0.734332 2.48191
upperback 2.66848 1.51507 3.58729
thorax -4.93638 0.72361 2.10292
lowerneck -6.72265 -2.73586 -7.00089
upperneck 1.65997 -3.2635 5.3915
head 1.94967 -1.55734 2.86851
rclavicle 1.98785e-015 -4.49253e-014
rhumerus -24.8953 7.47356 -84.0153
rradius 92.4183
rwrist -14.3546
rhand -21.0787 -8.99842
rfingers 7.12502
rthumb 5.29839 -38.9122
lclavicle 1.98785e-015 -4.49253e-014
lhumerus -31.4301 0.0758262 77.6898
lradius 111.337
lwrist 6.0451
lhand -36.5554 -22.7489
lfingers 7.12502
lthumb -9.64567 7.01027
rfemur -12.0359 3.76496 24.6872
rtibia 29.6526
rfoot -14.6954 -9.88065
rtoes 4.45125
lfemur -11.8623 3.84093 -10.9318
ltibia 31.1699
lfoot -17.9393 4.26645
ltoes -5.73701
85
root 9.45846 17.8422 -18.2652 3.91738 -6.70276 -5.76145
lowerback 13.8743 0.844605 2.53164
upperback 2.5813 1.67749 3.5833
thorax -5.08904 0.801815 2.0405
lowerneck -6.4642 -2.81148 -6.89022
upperneck 1.44396 -3.38604 5.42798
head 1.83769 -1.61891 2.85521
rclavicle 1.2921e-015 2.0276e-014
rhumerus -25.0636 6.94293 -83.6881
rradius 93.0088
rwrist -14.2818
rhand -21.0358 -8.44479
rfingers 7.12502
rthumb 5.33976 -38.3575
lclavicle 1.2921e-015 2.0276e-014
lhumerus -31.4628 -0.0332346 77.7204
lradius 111.158
lwrist 6.44666
lhand -36.2061 -22.4985
lfingers 7.12502
lthumb -9.3087 7.27602
rfemur -11.9523 3.7614 24.7739
rtibia 29.573
rfoot -14.7433 -9.79132
rtoes 4.84656
lfemur -11.8788 3.75367 -10.8301
ltibia 31.2443
lfoot -17.962 4.33694
ltoes -6.21206
86
root 9.46036 17.8471 -18.2563 3.89973 -6.60977 -5.73056
lowerback 13.971 0.924326 2.55435
upperback 2.46622 1.79349 3.52312
thorax -5.26341 0.85698 1.94173
lowerneck -6.18455 -2.88062 -6.89872
upperneck 1.31715 -3.498 5.59409
head 1.75799 -1.67436 2.91026
rclavicle 1.5207e-014 3.18055e-015
rhumerus -25.1237 6.52933 -83.3483
rradius 93.4219
rwrist -14.1374
rhand -21.0878 -7.80892
rfingers 7.12502
rthumb 5.28955 -37.7229
lclavicle 1.5207e-014 3.18055e-015
lhumerus -31.6415 -0.251933 77.7375
lradius 111.053
lwrist 6.79937
lhand -36.1323 -22.5373
lfingers 7.12502
lthumb -9.2375 7.24033
rfemur -11.8881 3.70938 24.718
rtibia 29.5338
rfoot -14.8641 -9.7083
rtoes 5.36188
lfemur -11.9078 3.61536 -10.8932
ltibia 31.3151
lfoot -17.9761 4.37006
ltoes -5.73795
87
root 9.46235 17.8491 -18.2484 3.91213 -6.39654 -5.79251
lowerback 14.0067 0.889901 2.69484
upperback 2.3701 1.77399 3.49436
thorax -5.37919 0.84398 1.83497
lowerneck -6.06626 -2.93841 -6.90333
upperneck 1.35369 -3.58738 5.70727
head 1.75826 -1.71841 2.94715
rclavicle -6.95746e-015 -5.96354e-015
rhumerus -25.1231 6.36101 -83.0698
rradius 93.9621
rwrist -14.205
rhand -21.0909 -8.4698
rfingers 7.12502
rthumb 5.28656 -38.3839
lclavicle -6.95746e-015 -5.96354e-015
lhumerus -31.8336 -0.299117 77.6576
lradius 110.913
lwrist 6.90511
lhand -36.1911 -22.3424
lfingers 7.12502
lthumb -9.29419 7.43277
rfemur -11.8939 3.52834 24.7786
rtibia 29.5604
rfoot -14.8862 -9.7076
rtoes 5.64943
lfemur -12.002 3.56706 -10.8188
ltibia 31.3647
lfoot -17.9286 4.1402
ltoes -5.29081
88
root 9.46302 17.8467 -18.2413 3.98614 -6.30435 -5.90548
lowerback 13.9205 0.811302 2.80834
upperback 2.33824 1.68802 3.55855
thorax -5.36305 0.80043 1.85548
lowerneck -5.90938 -2.9105 -7.18524
upperneck 1.21309 -3.54001 5.8514
head 1.69242 -1.69538 3.05286
rclavicle 7.85199e-015 4.13472e-014
rhumerus -25.0314 6.46382 -82.7697
rradius 94.4947
rwrist -14.3476
rhand -20.5353 -8.99231
rfingers 7.12502
rthumb 5.82297 -38.8923
lclavicle 7.85199e-015 4.13472e-014
lhumerus -31.9604 0.0321157 77.6236
lradius 110.823
lwrist 6.90268
lhand -36.3772 -21.7317
lfingers 7.12502
lthumb -9.47373 8.03538
rfemur -11.9892 3.45311 24.8933
rtibia 29.6461
rfoot -14.8518 -9.68638
rtoes 5.97975
lfemur -12.1248 3.67643 -10.6833
ltibia 31.4258
lfoot -17.9418 3.91691
ltoes -5.51919
89
root 9.46257 17.8446 -18.2339 4.00849 -6.3514 -5.7574
lowerback 13.8363 0.827037 2.67608
upperback 2.39664 1.67923 3.50875
thorax -5.25698 0.798992 1.87993
lowerneck -6.13086 -2.92687 -7.5191
upperneck 1.22536 -3.53278 6.15489
head 1.75455 -1.68494 3.2206
rclavicle 2.08724e-015 1.78906e-014
rhumerus -24.7049 6.3565 -82.5109
rradius 94.8084
rwrist -14.2943
rhand -19.588 -8.25813
rfingers 7.12502
rthumb 6.73759 -38.1309
lclavicle 2.08724e-015 1.78906e-014
lhumerus -31.8795 0.299018 77.5772
lradius 110.826
lwrist 6.99388
lhand -36.2097 -21.0997
lfingers 7.12502
lthumb -9.31219 8.67465
rfemur -12.069 3.44445 24.7129
rtibia 29.7843
rfoot -14.9187 -9.55443
rtoes 6.32157
lfemur -12.1469 3.84327 -10.866
ltibia 31.4744
lfoot -17.9113 3.85985
ltoes -5.83895
90
root 9.46628 17.8391 -18.2306 4.01327 -6.10644 -5.67835
lowerback 13.7729 0.880563 2.7695
upperback 2.50202 1.74631 3.35173
thorax -5.10359 0.830686 1.65011
lowerneck -6.46086 -3.08023 -7.29698
upperneck 1.20778 -3.73833 6.3177
head 1.82317 -1.77774 3.22342
rclavicle 1.00386e-014 6.36111e-015
rhumerus -24.2771 5.64391 -82.3425
rradius 95.0212
rwrist -14.1289
rhand -18.9215 -7.6304
rfingers 7.12502
rthumb 7.38097 -37.4816
lclavicle 1.00386e-014 6.36111e-015
lhumerus -31.4712 0.0248122 77.5081
lradius 110.673
lwrist 6.92437
lhand -36.1202 -20.8708
lfingers 7.12502
lthumb -9.22581 8.90735
rfemur -12.1718 3.2132 24.6293
rtibia 29.9841
rfoot -14.9841 -9.65038
rtoes 5.68703
lfemur -12.2032 3.71015 -10.9575
ltibia 31.4414
lfoot -17.8089 3.84596
ltoes -5.99856
91
root 9.47125 17.8381 -18.2278 4.01915 -5.68078 -5.60629
lowerback 13.6838 0.874373 2.81199
upperback 2.5784 1.73334 3.29377
thorax -4.9706 0.824816 1.56858
lowerneck -6.46167 -3.16606 -7.245
upperneck 1.00116 -3.85504 6.4528
head 1.76676 -1.83224 3.25458
rclavicle -1.68967e-014 -1.82882e-014
rhumerus -24.0159 5.07669 -82.0621
rradius 95.2916
rwrist -14.0945
rhand -18.7717 -7.47941
rfingers 7.12502
rthumb 7.52556 -37.3255
lclavicle -1.68967e-014 -1.82882e-014
lhumerus -31.2271 -0.194094 77.5882
lradius 110.514
lwrist 6.83591
lhand -36.0707 -20.9405
lfingers 7.12502
lthumb -9.17807 8.83976
rfemur -12.3031 2.9034 24.5618
rtibia 30.2234
rfoot -14.9429 -9.8287
rtoes 5.20648
lfemur -12.307 3.37453 -11.0276
ltibia 31.3685
lfoot -17.7475 3.74089
ltoes -5.77745
92
root 9.47549 17.8451 -18.2191 3.98589 -5.42868 -5.21788
lowerback 13.6689 0.890138 2.40004
upperback 2.59752 1.69351 3.27951
thorax -4.95352 0.81191 1.79316
lowerneck -6.38654 -3.16074 -7.49663
upperneck 0.803869 -3.83008 6.56588
head 1.6972 -1.81956 3.34352
rclavicle -1.72943e-014 -4.77083e-014
rhumerus -23.9129 4.84666 -81.6466
rradius 95.6349
rwrist -14.0506
rhand -18.8627 -7.53332
rfingers 7.12502
rthumb 7.43769 -37.3826
lclavicle -1.72943e-014 -4.77083e-014
lhumerus -31.2416 -0.120813 77.7866
lradius 110.573
lwrist 7.23535
lhand -35.7705 -20.9229
lfingers 7.12502
lthumb -8.88833 8.86991
rfemur -12.3989 2.51411 24.1065
rtibia 30.4446
rfoot -14.8939 -9.70026
rtoes 4.75156
lfemur -12.3404 3.22409 -11.4827
ltibia 31.3501
lfoot -17.7686 3.5938
ltoes -5.60391
93
root 9.48094 17.8453 -18.2142 3.96333 -5.30035 -4.93784
lowerback 13.7629 0.920139 2.16316
upperback 2.64647 1.69831 3.22533
thorax -4.95877 0.817526 1.86793
lowerneck -6.54543 -3.22729 -7.46339
upperneck 0.610988 -3.90136 6.46754
head 1.66384 -1.85375 3.29806
rclavicle 6.55989e-015 -2.78299e-015
rhumerus -23.6327 4.60739 -81.3306
rradius 95.9316
rwrist -14.0179
rhand -18.8837 -8.11632
rfingers 7.12502
rthumb 7.41745 -37.9663
lclavicle 6.55989e-015 -2.78299e-015
lhumerus -31.0057 -0.0662266 77.8851
lradius 110.53
lwrist 7.57245
lhand -35.9244 -21.2623
lfingers 7.12502
lthumb -9.03685 8.52412
rfemur -12.4751 2.05784 23.7581
rtibia 30.5833
rfoot -14.8115 -9.54699
rtoes 3.71225
lfemur -12.394 3.25295 -11.8384
ltibia 31.42
lfoot -17.7969 3.52193
ltoes -5.57289
94
root 9.47726 17.8405 -18.2144 3.94136 -5.2148 -5.03105
lowerback 13.8578 0.883376 2.18223
upperback 2.7361 1.65499 3.27159
thorax -4.91624 0.796253 1.91291
lowerneck -6.70686 -3.24853 -7.4174
upperneck 0.444399 -3.9126 6.32025
head 1.63296 -1.85895 3.23592
rclavicle 7.55382e-015 4.09496e-014
rhumerus -23.2547 4.56459 -81.159
rradius 96.1948
rwrist -14.2437
rhand -19.3344 -8.61113
rfingers 7.12502
rthumb 6.98238 -38.476
lclavicle 7.55382e-015 4.09496e-014
lhumerus -30.7669 0.180321 77.8698
lradius 110.404
lwrist 7.55056
lhand -35.9408 -21.7961
lfingers 7.12502
lthumb -9.05267 7.98964
rfemur -12.4854 2.00108 23.8834
rtibia 30.6312
rfoot -14.7595 -9.61064
rtoes 3.70395
lfemur -12.4844 3.33887 -11.7087
ltibia 31.5895
lfoot -17.8452 3.33523
ltoes -5.03454
95
root 9.46932 17.8401 -18.2109 3.89914 -5.04705 -5.33224
lowerback 13.7935 0.805272 2.30883
upperback 2.84773 1.57073 3.42886
thorax -4.76276 0.754637 2.02329
lowerneck -6.70127 -3.22367 -7.48474
upperneck 0.329647 -3.86809 6.23064
head 1.58991 -1.83831 3.21955
rclavicle -7.65321e-015 -3.10104e-014
rhumerus -23.0005 4.54026 -80.9611
rradius 96.4767
rwrist -14.4599
rhand -19.7269 -8.65436
rfingers 7.12502
rthumb 6.60346 -38.5314
lclavicle -7.65321e-015 -3.10104e-014
lhumerus -30.6716 0.45418 77.8895
lradius 110.372
lwrist 7.57864
lhand -35.7199 -22.1452
lfingers 7.12502
lthumb -8.83949 7.64969
rfemur -12.3897 2.18348 24.2796
rtibia 30.6076
rfoot -14.7582 -9.86656
rtoes 4.31115
lfemur -12.5951 3.40987 -11.2961
ltibia 31.8477
lfoot -17.8766 2.9174
ltoes -4.41442
96
root 9.46804 17.8412 -18.2084 3.8844 -4.82317 -5.63903
lowerback 13.6692 0.784838 2.55392
upperback 2.93718 1.57582 3.56478
thorax -4.59772 0.755678 2.02873
lowerneck -6.51193 -3.28378 -7.51197
upperneck 0.119253 -3.9521 6.20491
head 1.49294 -1.88271 3.2136
rclavicle -1.32192e-014 3.57812e-015
rhumerus -22.8132 4.29429 -80.6441
rradius 96.7528
rwrist -14.6092
rhand -19.6873 -8.70564
rfingers 7.12502
rthumb 6.64171 -38.5815
lclavicle -1.32192e-014 3.57812e-015
lhumerus -30.4925 0.433923 78.0243
lradius 110.352
lwrist 7.66564
lhand -35.7261 -22.2215
lfingers 7.12502
lthumb -8.84549 7.57306
rfemur -12.3069 2.18198 24.6534
rtibia 30.545
rfoot -14.6483 -10.1072
rtoes 4.45573
lfemur -12.747 3.42794 -10.9381
ltibia 32.0914
lfoot -17.8091 2.67666
ltoes -4.35842
